/* XPM */
static char * enemy_xpm[] = {
"42 42 9 1",
" 	c None",
".	c #4317F0",
"+	c #FFFFFF",
"@	c #5EE619",
"#	c #000000",
"$	c #F01717",
"%	c #171717",
"&	c #1952E6",
"*	c #0F0F0F",
"                    .                     ",
"                +++  .                    ",
"                   +  . +                 ",
"                  +   .+ +   + +          ",
"                 +   .+++++ + + +         ",
"                 +++.+     ++   +         ",
"                   @@@@@@@@@@@@@@         ",
"                  @@@@@@@@@@@@@@@@        ",
"                 @@@@@@@@@@@@@@@@@@       ",
"                @@@@@@@@@@@@@@@@@@@@      ",
"               @@@@@@@@@@@@@@@@@@@@@#     ",
"              @@@@@@@@@@@@@@$@@@@@@%@@    ",
"          &&&&&&&&&&&&&&&@@@$$@@@@@%@@@   ",
"         &&&&&*&*&&&&&&&&&@@@$@@@@@%@@@@  ",
"         &&&&*&*&&&&&&&&&&@@@@@@@@@%@@@@@ ",
"          &&&&&&&&&&&&&&&@@@@@@@@@@%@@@@@ ",
"             @@@@@@@@@@@@@@@@@@@@@@%@@@@@ ",
"      @      @@@@@@@@@@@@@@@@@$@@@@%$@@@@ ",
"  @    @@@@@ @@@@@@@@@@@@@@@@@@@@@@%@$@@@ ",
"   @@@@@@@@@@@@@@@@@@@@@@@@@@@@@@@@%@$@@@ ",
"       @@@@@@@@@@@@@@@@@@@@@@@@@@@@%@@$@@ ",
"  +++++@@@@@@@@@@@@@@@@@@@@@@@@@@@@%@@$@@ ",
"       @@@@@@@@@@@@@@%@%@%@%@@@@@@@%@@@@@ ",
"     @@@@@@@ @@@@@@@%+%+%+%+%@@@@@@%@@@@@ ",
"    @        @@@@@@@%+++++++%@@@@@@%@@@@@ ",
"             @@@@@@@%+%+%+%%%@@@@@@%@@@@@ ",
"             @@@@@@@@%@%@%$$@@@@@@@*@@@@@ ",
"             @@@@@@@@@@@@@$@@@@@@@@*@@@@@ ",
"             @@@@@@@@@@@@@$@@@@@@@@*@@@@@ ",
"             @@@@@@@@@@@@@@@@@@@@@@*@@@@@ ",
"             @@@@@@@            @@@@%@@@  ",
"             @@@@@@@            @@@@@%@   ",
"             @@@@@@@            @@@@@@    ",
"             @@@@@@@            @@@@@@    ",
"             @@@@@@@            @@@@@@    ",
"             @@@@@@@            @@@@@@    ",
"             @@@@@@@            @@@@@@    ",
"             @@@@@@@            @@@@@@    ",
"             @@@@@@@            @@@@@@    ",
"             @@@@@@@            @@@@@@    ",
"              @@@@@@            @@@@@@    ",
"              @@@@@              @@@@     "};
