/* XPM */
static char * item3_xpm[] = {
"42 42 2 1",
" 	c None",
".	c #DFFF00",
"                                          ",
"                                          ",
"                                          ",
"                                          ",
"                                          ",
"                                          ",
"                                          ",
"                                          ",
"               ...                        ",
"              ....                        ",
"             .....                        ",
"             .....                        ",
"            ... ..                        ",
"           .... ..                        ",
"          ....  ..                        ",
"         ...    ...                       ",
"        ...........                       ",
"        ............                      ",
"                 ....                     ",
"                  ....                    ",
"                   ....                   ",
"                   .....                  ",
"                    .....                 ",
"                      ....   .            ",
"                       .... ..            ",
"                       ...........        ",
"                         ........         ",
"                          ......          ",
"                            ...           ",
"                             ..           ",
"                                          ",
"                                          ",
"                                          ",
"                                          ",
"                                          ",
"                                          ",
"                                          ",
"                                          ",
"                                          ",
"                                          ",
"                                          ",
"                                          "};
