/* XPM */
static char * item2_xpm[] = {
"42 42 2 1",
" 	c None",
".	c #DFFF00",
"                                          ",
"                                          ",
"                                          ",
"                                          ",
"                                          ",
"                                          ",
"                  .                       ",
"                  .                       ",
"                 ...                      ",
"                 ...                      ",
"                 ....                     ",
"                 ....                     ",
"                 ....                     ",
"                 ....                     ",
"                 ....                     ",
"                 ...                      ",
"                 ...                      ",
"                 ...                      ",
"                 ...                      ",
"                 ...                      ",
"                 ...                      ",
"                 ...                      ",
"                 ...                      ",
"                 ...                      ",
"                 ...                      ",
"                 ...                      ",
"                 ...                      ",
"                  ..                      ",
"                                          ",
"                                          ",
"                                          ",
"                                          ",
"                                          ",
"                                          ",
"                                          ",
"                                          ",
"                                          ",
"                                          ",
"                                          ",
"                                          ",
"                                          ",
"                                          "};
