/* XPM */
static char * key_xpm[] = {
"42 42 3 1",
" 	c None",
".	c #E6DF19",
"+	c #EC9818",
"                                          ",
"                           ..             ",
"                          ....            ",
"                          .....           ",
"                          ......          ",
"                          .. ....         ",
"                          ..  ....        ",
"                          ..   ....       ",
"                          ..........      ",
"                          ...........     ",
"                          ............    ",
"                          ........ ....   ",
"                          ........  ....  ",
"                         +........   .... ",
"                         .................",
"                        ..................",
"                       ...............    ",
"                      ...............     ",
"                     .....                ",
"      ..            .....                 ",
"    .  ...         .....                  ",
"   ...  ...       .....                   ",
"    ...  ...     .....                    ",
" ..  ...  ...   .....                     ",
"  ..  ... .... .....                      ",
"  ...   ...........                       ",
"   .... ..........                        ",
" .  .............                         ",
"  .. ...........                          ",
"   ............                           ",
"    ..........                            ",
"     ........                             ",
"      ......                              ",
"        ...                               ",
"         .                                ",
"                                          ",
"                                          ",
"                                          ",
"                                          ",
"                                          ",
"                                          ",
"                                          "};
