/* XPM */
static char * huggy_xpm[] = {
"42 42 9 1",
" 	c None",
".	c #1952E6",
"+	c #4317F0",
"@	c #000000",
"#	c #0F0F0F",
"$	c #FFFFFF",
"%	c #F01717",
"&	c #171717",
"*	c #E6DF19",
"                                          ",
"                                          ",
"                .                         ",
"               ...      .                 ",
"              .....    ...                ",
"             +.....   .....               ",
"            ++@@@@.   @@@@.+              ",
"            ++@#$@.   @$#@.++             ",
"            ++@#$@....@$#@.++             ",
"            ++@@@@....@@@@.++             ",
"            ++.............++             ",
"            ++.............++             ",
"            +%%%%%%%%%%%%%%%+             ",
"            ++%%$&$&$&$&$%%++             ",
"             +.%$&$&$&$&$%++              ",
"             +..%&$&$&$&%++               ",
"              ++.%$&$&%%++                ",
"               ++.%%%%%+++                ",
"                 +...+++                  ",
"                 ........                 ",
"                ..........                ",
"               ............               ",
"              ..............              ",
"             ................             ",
"            ..................            ",
"           ....................           ",
"           ...............  ....          ",
"           ....  .........  ....          ",
"           ....  .........  ....          ",
"           ....  .........  ....          ",
"      ****.....  .........  .....***      ",
"     **********  .........  *********     ",
"     **********  .........  *********     ",
"      *********  .........  ********      ",
"         ******  .........  *******       ",
"         ******  .........  *****         ",
"          ****   .........  ****          ",
"           **    .... ....   **           ",
"                 .... ....                ",
"                 .... ....                ",
"                 .... ....                ",
"                ***** *****               "};
